<svg width="145" height="126" viewBox="0 0 145 126" fill="none" xmlns="http://www.w3.org/2000/svg">
<path d="M95.6521 124.362C95.1983 124.362 94.7399 124.315 94.2899 124.223C94.2256 124.212 94.1571 124.197 94.0886 124.179L21.7601 107.161C20.1245 106.777 18.6758 105.827 17.6727 104.48L17.6274 104.422C16.7269 103.191 16.251 101.732 16.251 100.204V37.8092C16.251 36.5296 16.6258 35.2921 17.335 34.2298L17.5806 34.3629C17.091 35.505 17.0766 36.5919 17.539 37.5056C18.09 38.5944 19.286 39.4022 20.9064 39.7795L97.1803 57.2838C100.245 58.0038 102.384 60.7043 102.384 63.851V117.613C102.384 121.334 99.3642 124.362 95.6521 124.362Z" fill="#E67E22"/>
<path d="M17.4516 34.3076C16.2536 37.102 17.923 39.2287 20.8746 39.9162C20.8829 39.9189 20.8913 39.9189 20.8998 39.9217L97.1488 57.4205C100.134 58.1219 102.244 60.7846 102.244 63.8511V117.613C102.244 121.343 99.1958 124.222 95.652 124.222C95.2132 124.222 94.7671 124.178 94.318 124.086C94.2534 124.074 94.1888 124.06 94.1243 124.043L21.792 107.024C20.117 106.632 18.703 105.655 17.7434 104.339H17.7406C16.8849 103.169 16.3912 101.736 16.3912 100.204V37.8092C16.3912 36.513 16.781 35.3121 17.4516 34.3076ZM17.2183 34.1517C16.4936 35.2373 16.1106 36.502 16.1106 37.8092V100.204C16.1106 101.762 16.596 103.25 17.5141 104.505L17.5982 104.62H17.6026C18.6236 105.963 20.0831 106.912 21.7281 107.297L94.06 124.317C94.1234 124.333 94.1965 124.349 94.2699 124.362C94.7209 124.455 95.1888 124.502 95.652 124.502C99.4416 124.502 102.524 121.412 102.524 117.613V63.8511C102.524 60.6389 100.34 57.8823 97.213 57.1474L20.9743 39.651L20.9657 39.6483L20.9417 39.6439L20.9383 39.6431C19.3589 39.2751 18.196 38.4937 17.6641 37.4424C17.2209 36.5667 17.2367 35.5212 17.7094 34.4183L17.2183 34.1517Z" fill="#66142E"/>
<path d="M17.8171 43.9863C17.7225 43.9863 17.6266 43.9625 17.5387 43.9121C16.9367 43.5672 16.4266 43.1641 15.9793 42.68C15.7689 42.4523 15.7831 42.0972 16.0108 41.887C16.2383 41.6769 16.5933 41.6906 16.8037 41.9183C17.1724 42.3175 17.5953 42.6512 18.0966 42.9384C18.3655 43.0923 18.4587 43.4354 18.3045 43.7041C18.2008 43.8849 18.0116 43.9863 17.8171 43.9863Z" fill="white"/>
<path d="M94.4368 120.067C94.3942 120.067 94.3509 120.062 94.3077 120.052L90.7728 119.22C90.4712 119.149 90.2842 118.847 90.3551 118.545C90.4262 118.244 90.729 118.057 91.0298 118.127L94.5647 118.959C94.8664 119.031 95.0534 119.332 94.9824 119.634C94.9216 119.892 94.6912 120.067 94.4368 120.067ZM97.5622 119.071C97.4834 119.071 97.4034 119.055 97.3272 119.019C97.0458 118.889 96.9232 118.556 97.0532 118.275C97.1465 118.073 97.1938 117.85 97.1938 117.613V114.907C97.1938 114.597 97.445 114.346 97.7549 114.346C98.0648 114.346 98.316 114.597 98.316 114.907V117.613C98.316 118.014 98.234 118.395 98.0719 118.745C97.9771 118.95 97.7742 119.071 97.5622 119.071ZM87.3672 118.403C87.3246 118.403 87.2813 118.399 87.2381 118.388L83.7034 117.557C83.4017 117.485 83.2148 117.184 83.2857 116.882C83.3567 116.58 83.6593 116.393 83.9604 116.464L87.4951 117.296C87.7968 117.367 87.9837 117.669 87.9128 117.971C87.852 118.229 87.6216 118.403 87.3672 118.403ZM80.2974 116.74C80.255 116.74 80.2117 116.735 80.1686 116.725L76.6338 115.893C76.3322 115.822 76.1452 115.52 76.2161 115.218C76.2872 114.917 76.5904 114.729 76.8908 114.801L80.4256 115.632C80.7272 115.704 80.9142 116.006 80.8433 116.307C80.7824 116.566 80.552 116.74 80.2974 116.74ZM73.228 115.077C73.1855 115.077 73.1423 115.072 73.0991 115.062L69.5642 114.23C69.2626 114.159 69.0756 113.857 69.1465 113.555C69.2175 113.254 69.5194 113.067 69.8212 113.137L73.3561 113.969C73.6578 114.04 73.8447 114.342 73.7738 114.644C73.7129 114.902 73.4825 115.077 73.228 115.077ZM66.1584 113.413C66.1159 113.413 66.0726 113.408 66.0295 113.398L62.4948 112.566C62.1931 112.495 62.0061 112.193 62.0771 111.892C62.1481 111.59 62.4498 111.403 62.7518 111.474L66.2865 112.306C66.5882 112.377 66.7751 112.679 66.7042 112.98C66.6433 113.239 66.4129 113.413 66.1584 113.413ZM97.7549 111.837C97.445 111.837 97.1938 111.585 97.1938 111.275V107.644C97.1938 107.334 97.445 107.083 97.7549 107.083C98.0648 107.083 98.316 107.334 98.316 107.644V111.275C98.316 111.585 98.0648 111.837 97.7549 111.837ZM59.0889 111.75C59.0463 111.75 59.003 111.745 58.9598 111.735L55.4251 110.903C55.1234 110.832 54.9365 110.53 55.0074 110.228C55.0784 109.927 55.3802 109.739 55.6821 109.81L59.2168 110.642C59.5185 110.714 59.7055 111.015 59.6345 111.317C59.5738 111.575 59.3433 111.75 59.0889 111.75ZM52.0194 110.086C51.9769 110.086 51.9335 110.082 51.8904 110.072L48.3557 109.24C48.054 109.168 47.867 108.867 47.938 108.565C48.0089 108.264 48.3104 108.076 48.6127 108.147L52.1474 108.979C52.449 109.05 52.636 109.352 52.5651 109.654C52.5043 109.912 52.2739 110.086 52.0194 110.086ZM44.9498 108.423C44.9072 108.423 44.8639 108.418 44.8208 108.408L41.2861 107.576C40.9844 107.505 40.7974 107.203 40.8683 106.901C40.9393 106.6 41.2421 106.413 41.543 106.484L45.0778 107.315C45.3794 107.387 45.5664 107.689 45.4955 107.99C45.4347 108.249 45.2042 108.423 44.9498 108.423ZM37.8804 106.76C37.8378 106.76 37.7945 106.755 37.7513 106.745L34.2164 105.913C33.9148 105.842 33.7278 105.54 33.7987 105.238C33.8697 104.936 34.1722 104.75 34.4734 104.82L38.0083 105.652C38.31 105.723 38.497 106.025 38.426 106.327C38.3652 106.585 38.1348 106.76 37.8804 106.76ZM30.8108 105.096C30.7682 105.096 30.7249 105.092 30.6817 105.081L27.147 104.25C26.8453 104.178 26.6584 103.876 26.7293 103.575C26.8004 103.273 27.1033 103.086 27.404 103.157L30.9387 103.989C31.2404 104.06 31.4273 104.362 31.3564 104.663C31.2956 104.922 31.0652 105.096 30.8108 105.096ZM97.7549 104.574C97.445 104.574 97.1938 104.323 97.1938 104.013V100.382C97.1938 100.072 97.445 99.8205 97.7549 99.8205C98.0648 99.8205 98.316 100.072 98.316 100.382V104.013C98.316 104.323 98.0648 104.574 97.7549 104.574ZM23.741 103.433C23.6986 103.433 23.6553 103.428 23.612 103.418L22.6915 103.201C21.6862 103.013 20.8088 102.784 20.0341 102.505C19.7424 102.4 19.5912 102.079 19.6961 101.787C19.8011 101.495 20.123 101.345 20.4141 101.449C21.1319 101.707 21.9527 101.921 22.9236 102.103L23.8693 102.326C24.1709 102.397 24.3578 102.699 24.2868 103C24.226 103.259 23.9956 103.433 23.741 103.433ZM97.7549 97.3113C97.445 97.3113 97.1938 97.0601 97.1938 96.7502V93.119C97.1938 92.8092 97.445 92.5579 97.7549 92.5579C98.0648 92.5579 98.316 92.8092 98.316 93.119V96.7502C98.316 97.0601 98.0648 97.3113 97.7549 97.3113ZM97.7549 90.0487C97.445 90.0487 97.1938 89.7974 97.1938 89.4876V85.8564C97.1938 85.5465 97.445 85.2953 97.7549 85.2953C98.0648 85.2953 98.316 85.5465 98.316 85.8564V89.4876C98.316 89.7975 98.0648 90.0487 97.7549 90.0487ZM97.7549 82.7861C97.445 82.7861 97.1938 82.5348 97.1938 82.225V78.5938C97.1938 78.2839 97.445 78.0327 97.7549 78.0327C98.0648 78.0327 98.316 78.2839 98.316 78.5938V82.225C98.316 82.5348 98.0648 82.7861 97.7549 82.7861ZM97.7549 75.5238C97.445 75.5238 97.1938 75.2725 97.1938 74.9626V71.3312C97.1938 71.0213 97.445 70.77 97.7549 70.77C98.0648 70.77 98.316 71.0213 98.316 71.3312V74.9626C98.316 75.2725 98.0648 75.5238 97.7549 75.5238ZM97.7549 68.2611C97.445 68.2611 97.1938 68.0099 97.1938 67.7V64.0685C97.1938 63.7587 97.445 63.5074 97.7549 63.5074C98.0648 63.5074 98.316 63.7587 98.316 64.0685V67.7C98.316 68.0099 98.0648 68.2611 97.7549 68.2611ZM95.564 62.2238C95.5223 62.2238 95.4801 62.2194 95.4379 62.2095L91.8987 61.3974C91.5966 61.3281 91.408 61.0269 91.4773 60.725C91.5466 60.4228 91.8482 60.2354 92.1496 60.3036L95.6889 61.1158C95.9909 61.1851 96.1796 61.4862 96.1103 61.7881C96.0507 62.0479 95.8196 62.2238 95.564 62.2238ZM88.4853 60.5993C88.4437 60.5993 88.4015 60.5949 88.3593 60.585L84.82 59.7726C84.518 59.7033 84.3293 59.4022 84.3986 59.1003C84.4679 58.7983 84.7703 58.6104 85.071 58.6789L88.6102 59.4913C88.9123 59.5606 89.1009 59.8617 89.0316 60.1636C88.9721 60.4234 88.741 60.5993 88.4853 60.5993ZM81.4068 58.9748C81.3652 58.9748 81.323 58.9704 81.2808 58.9606L77.7414 58.1482C77.4393 58.0789 77.2507 57.7777 77.32 57.4758C77.3893 57.1739 77.6914 56.9859 77.9923 57.0544L81.5317 57.8668C81.8338 57.9361 82.0224 58.2372 81.9531 58.5392C81.8936 58.7989 81.6624 58.9748 81.4068 58.9748ZM74.3282 57.3503C74.2866 57.3503 74.2444 57.3457 74.2022 57.3361L70.6629 56.5237C70.3608 56.4544 70.1722 56.1533 70.2415 55.8513C70.3108 55.5491 70.6125 55.3617 70.9138 55.4299L74.4531 56.2423C74.7552 56.3116 74.9438 56.6127 74.8745 56.9147C74.8149 57.1744 74.5838 57.3503 74.3282 57.3503ZM67.2497 55.7256C67.208 55.7256 67.1658 55.7212 67.1236 55.7113L63.5843 54.8992C63.2822 54.8299 63.0936 54.5288 63.1629 54.2269C63.2322 53.9249 63.5345 53.7375 63.8352 53.8055L67.3746 54.6176C67.6766 54.6869 67.8653 54.9881 67.796 55.2899C67.7364 55.5497 67.5053 55.7256 67.2497 55.7256ZM60.171 54.1011C60.1294 54.1011 60.0872 54.0968 60.045 54.0869L56.5057 53.2748C56.2037 53.2055 56.015 52.9044 56.0843 52.6024C56.1538 52.3005 56.4556 52.1133 56.7567 52.181L60.2959 52.9931C60.598 53.0624 60.7866 53.3636 60.7173 53.6655C60.6577 53.9252 60.4267 54.1011 60.171 54.1011ZM53.0925 52.4766C53.0509 52.4766 53.0087 52.4722 52.9665 52.4623L49.4271 51.6502C49.1251 51.5809 48.9364 51.2798 49.0057 50.9779C49.075 50.6759 49.3767 50.488 49.6781 50.5565L53.2175 51.3686C53.5195 51.4379 53.7082 51.7391 53.6389 52.0409C53.5793 52.3007 53.3481 52.4766 53.0925 52.4766ZM46.0139 50.8521C45.9723 50.8521 45.9301 50.8478 45.8879 50.8379L42.3486 50.0255C42.0465 49.9562 41.8579 49.655 41.9272 49.3531C41.9965 49.0511 42.2987 48.8637 42.5995 48.9317L46.1388 49.7441C46.4409 49.8134 46.6295 50.1145 46.5602 50.4164C46.5006 50.6762 46.2695 50.8521 46.0139 50.8521ZM38.9353 49.2277C38.8936 49.2277 38.8514 49.2233 38.8092 49.2134L35.27 48.401C34.9679 48.3317 34.7793 48.0305 34.8486 47.7286C34.918 47.4267 35.2197 47.2392 35.5209 47.3072L39.0602 48.1196C39.3623 48.1889 39.5509 48.4901 39.4816 48.7919C39.422 49.0518 39.1909 49.2277 38.9353 49.2277ZM31.8567 47.6032C31.8151 47.6032 31.7729 47.5985 31.7307 47.5889L28.1914 46.7765C27.8894 46.7072 27.7007 46.4061 27.77 46.1042C27.8393 45.8023 28.1417 45.6143 28.4424 45.6828L31.9816 46.4952C32.2837 46.5645 32.4723 46.8656 32.403 47.1675C32.3435 47.4273 32.1124 47.6032 31.8567 47.6032ZM24.7781 45.9787C24.7365 45.9787 24.6943 45.9741 24.6521 45.9645L21.1128 45.1521C20.8108 45.0828 20.6221 44.7816 20.6914 44.4797C20.7607 44.1778 21.0628 43.9899 21.3638 44.0583L24.903 44.8707C25.2051 44.94 25.3937 45.2411 25.3244 45.5431C25.2649 45.8028 25.0337 45.9787 24.7781 45.9787Z" fill="white"/>
<path d="M17.1984 100.591C17.0355 100.591 16.874 100.521 16.7632 100.385C16.3185 99.8391 16.0099 99.2196 15.846 98.5443C15.773 98.2432 15.9579 97.9395 16.2592 97.8667C16.5604 97.7927 16.8636 97.9788 16.9367 98.2796C17.0607 98.7911 17.2951 99.261 17.6331 99.6758C17.8289 99.9161 17.7928 100.27 17.5526 100.465C17.4484 100.55 17.323 100.591 17.1984 100.591Z" fill="white"/>
<g opacity="0.55">
<path d="M17.1879 36.9842C16.6801 37.8932 16.3911 38.9397 16.3911 40.0536V37.8091C16.3911 36.5129 16.7811 35.312 17.4516 34.3076C17.028 35.2952 16.9635 36.1986 17.1879 36.9842Z" fill="white"/>
</g>
<g opacity="0.55">
<path d="M102.244 63.8511V66.0956C102.244 63.0291 100.134 60.3665 97.1488 59.6651L20.8998 42.1663C20.8914 42.1635 20.883 42.1635 20.8745 42.1607C18.1362 41.5238 16.5005 39.6468 17.2384 37.147C17.6985 38.5049 19.0368 39.4897 20.8745 39.9161C20.883 39.919 20.8914 39.919 20.8998 39.9218L97.1488 57.4206C100.134 58.122 102.244 60.7845 102.244 63.8511Z" fill="white"/>
</g>
<g opacity="0.55">
<path d="M17.4517 36.5521C17.3647 36.7541 17.2946 36.9533 17.2385 37.1469C17.2189 37.0936 17.202 37.0403 17.188 36.9842C17.2694 36.8383 17.3563 36.6924 17.4517 36.5521Z" fill="white"/>
</g>
<path d="M95.65 125.063C95.1509 125.063 94.6484 125.012 94.1491 124.91C94.0859 124.899 93.998 124.88 93.9101 124.857L21.5994 107.843C18.0375 107.007 15.5496 103.865 15.5496 100.204V37.8092C15.5496 36.3907 15.9652 35.0183 16.7517 33.8402C16.9933 33.4785 17.4708 33.3607 17.8529 33.5676C18.2353 33.775 18.3967 34.2394 18.2253 34.6392C17.8142 35.5981 17.7939 36.456 18.1648 37.1889C18.6203 38.0887 19.6494 38.7659 21.0626 39.0958C21.071 39.0975 21.0796 39.0994 21.0881 39.1013L97.3371 56.6002C100.723 57.3959 103.086 60.3772 103.086 63.8511V117.613C103.086 119.86 102.087 121.963 100.346 123.383C99.0004 124.481 97.3459 125.063 95.65 125.063ZM17.2329 38.8026V100.204C17.2329 103.08 19.1869 105.548 21.9846 106.205L94.3171 123.224C94.3799 123.24 94.4212 123.249 94.4625 123.256C96.186 123.609 97.9339 123.179 99.282 122.079C100.63 120.98 101.402 119.352 101.402 117.613V63.851C101.402 61.1624 99.5741 58.8548 96.9565 58.24L20.7117 40.742C20.703 40.7403 20.6934 40.7381 20.6838 40.7357L20.6837 40.736C19.2035 40.3912 18.0125 39.7183 17.2329 38.8026Z" fill="#66142E"/>
<path d="M107.154 59.477C107.154 57.7251 106.463 56.0837 105.209 54.8554C104.369 54.0315 103.318 53.4534 102.17 53.183L22.3071 35.5504H107.232C109.292 35.5504 111.213 36.4746 112.502 38.0862C113.469 39.289 113.98 40.7455 113.98 42.2982V96.4217C113.98 97.1727 113.856 97.9102 113.613 98.6138C112.963 100.506 111.52 102.001 109.653 102.717C108.9 103.005 108.107 103.155 107.296 103.164L107.154 103.165L107.154 59.477Z" fill="#E67E22"/>
<path d="M107.232 35.6907C109.323 35.6907 111.183 36.6615 112.392 38.1739C113.301 39.3043 113.84 40.7381 113.84 42.2982V96.4217C113.84 97.1738 113.713 97.8947 113.481 98.5682C112.846 100.414 111.418 101.89 109.603 102.586C108.885 102.861 108.108 103.015 107.294 103.023V59.477C107.294 57.6506 106.545 55.9672 105.308 54.7551C104.469 53.9332 103.405 53.3299 102.202 53.0466L23.5933 35.6907H107.232ZM107.232 35.4102H23.5933H21.0212L23.5327 35.9647L102.141 53.3206C103.261 53.5838 104.289 54.1496 105.111 54.9555C106.338 56.1575 107.014 57.763 107.014 59.4771V103.024V103.307L107.297 103.304C108.125 103.295 108.935 103.142 109.704 102.848C111.609 102.117 113.082 100.591 113.746 98.6594C113.994 97.9413 114.12 97.1884 114.12 96.4217V42.2982C114.12 40.7132 113.598 39.2263 112.611 37.998C111.296 36.3535 109.335 35.4102 107.232 35.4102Z" fill="#66142E"/>
<g opacity="0.3">
<path d="M113.84 42.2981V96.4219C113.84 97.1738 113.713 97.8948 113.48 98.5682C112.846 100.414 111.418 101.89 109.603 102.586C108.885 102.861 108.108 103.015 107.294 103.024V59.4771C107.294 57.6506 106.545 55.9672 105.308 54.7552V42.907L106.803 42.0653C110.372 41.9643 113.116 41.2853 112.392 38.1738C113.301 39.3045 113.84 40.7382 113.84 42.2981Z" fill="#66142E"/>
</g>
<path d="M107.294 103.865C107.072 103.865 106.86 103.778 106.702 103.622C106.542 103.464 106.452 103.248 106.452 103.023V59.477C106.452 56.7887 104.625 54.4811 102.009 53.8657L23.4117 36.5126C22.9924 36.4201 22.7099 36.0263 22.7565 35.5995C22.8031 35.1723 23.1637 34.849 23.5932 34.849H107.232C111.34 34.849 114.681 38.1906 114.681 42.2982V96.4217C114.681 97.2508 114.545 98.0657 114.276 98.8432C113.559 100.931 111.965 102.582 109.904 103.372C109.073 103.69 108.198 103.856 107.303 103.865C107.3 103.865 107.297 103.865 107.294 103.865ZM31.3094 36.5324L102.383 52.2245C105.775 53.0221 108.136 56.0034 108.136 59.477V102.111C108.534 102.048 108.924 101.944 109.302 101.8C110.896 101.189 112.129 99.9109 112.684 98.2947C112.893 97.6927 112.998 97.0631 112.998 96.4217V42.2982C112.998 39.1188 110.411 36.5323 107.232 36.5323L31.3094 36.5324Z" fill="#66142E"/>
<g opacity="0.3">
<path d="M24.9949 36.0002H41.628L42.3126 39.3999L24.9949 36.0002Z" fill="#66142E"/>
</g>
<g opacity="0.3">
<path d="M52.4634 42.0652H53.277H57.6033H93.6587H97.9878H105.891C112.204 42.1887 113.438 40.0284 111.904 37.6267C109.933 35.0915 105.066 35.296 99.3682 36.287L52.4634 42.0652Z" fill="#66142E"/>
</g>
<path d="M97.5243 124.601C96.4807 124.601 95.3914 124.474 94.2869 124.222L94.3463 123.948C94.7777 124.036 95.2172 124.081 95.6521 124.081C99.2096 124.081 102.104 121.18 102.104 117.613V63.851C102.104 62.8496 101.867 61.8487 101.42 60.9569C100.558 59.2365 98.99 57.9973 97.1169 57.557L20.831 40.0493C19.1401 39.6562 17.8779 38.7967 17.2888 37.6322C16.7876 36.642 16.7994 35.4732 17.3229 34.2523C18.5355 32.4305 20.5426 31.3563 22.704 31.3563H111.629C115.35 31.3563 118.377 34.3833 118.377 38.1038V92.2276C118.471 99.3384 115.507 101.341 109.635 102.722L109.553 102.455C111.342 101.769 112.725 100.336 113.348 98.5227C113.581 97.8482 113.699 97.1415 113.699 96.4218V42.2983C113.699 41.7081 113.621 41.13 113.466 40.5798L113.461 40.5612V40.5554C112.686 37.7728 110.127 35.831 107.232 35.831H24.8794L102.232 52.9096C104.37 53.4132 106.133 54.9308 106.95 56.9701C107.272 57.7644 107.435 58.608 107.435 59.4771V112.978C107.668 116.591 106.757 119.608 104.801 121.694C103.017 123.596 100.501 124.601 97.5243 124.601Z" fill="#D3623B"/>
<path d="M111.629 31.4965C115.279 31.4965 118.236 34.4564 118.236 38.1037V92.2275C118.332 99.3707 115.22 101.265 109.603 102.586C111.418 101.89 112.846 100.414 113.481 98.5682C113.713 97.8948 113.84 97.1739 113.84 96.4218V42.2983C113.84 41.6892 113.758 41.1001 113.601 40.5417V40.5362C112.833 37.7446 110.271 35.6908 107.232 35.6908H23.5934L102.202 53.0466C104.345 53.5516 106.037 55.0695 106.82 57.0222C107.129 57.7853 107.294 58.6157 107.294 59.4772V112.978C107.768 120.33 103.453 124.461 97.5243 124.461C96.4983 124.461 95.4245 124.338 94.3181 124.086C94.7669 124.178 95.2136 124.222 95.6521 124.222C99.1963 124.222 102.244 121.343 102.244 117.613V63.8512C102.244 62.7964 101.994 61.7892 101.545 60.8941C100.69 59.1855 99.1073 57.881 97.1489 57.4207L20.8999 39.9219C20.8914 39.9191 20.883 39.9191 20.8747 39.9164C17.9231 39.2289 16.2537 37.1022 17.4517 34.3078C18.5824 32.6132 20.5128 31.4967 22.704 31.4967H111.629M111.629 31.2159H22.704C20.4956 31.2159 18.4449 32.3136 17.2183 34.152L17.2041 34.1734L17.1939 34.1972C16.6536 35.4573 16.643 36.6672 17.1635 37.6955C17.7703 38.8948 19.0611 39.7792 20.7988 40.1867L20.8077 40.1897L20.833 40.1943L20.8371 40.1952L97.0862 57.6941C98.9173 58.1245 100.452 59.3366 101.295 61.0198C101.732 61.8924 101.963 62.8714 101.963 63.8512V117.613C101.963 121.103 99.1322 123.941 95.6521 123.941C95.2266 123.941 94.7967 123.897 94.3744 123.811L94.2558 124.359C95.3703 124.613 96.47 124.742 97.5243 124.742C100.541 124.742 103.092 123.721 104.903 121.79C106.885 119.677 107.809 116.627 107.575 112.969V59.4772C107.575 58.59 107.408 57.7286 107.08 56.917C106.246 54.8363 104.446 53.2872 102.266 52.7735L26.1654 35.9713H107.232C110.058 35.9713 112.556 37.8621 113.321 40.5746V40.5749L113.331 40.6177C113.482 41.1555 113.559 41.721 113.559 42.2983V96.4218C113.559 97.1257 113.444 97.8172 113.215 98.4764C112.606 100.251 111.253 101.653 109.503 102.324L109.668 102.859C112.115 102.283 114.608 101.512 116.264 99.7842C117.848 98.1321 118.564 95.7297 118.517 92.2238V38.1037C118.517 34.3057 115.427 31.2159 111.629 31.2159Z" fill="#66142E"/>
<g opacity="0.55">
<path d="M102.244 117.613V119.366C102.244 121.28 101.442 122.972 100.179 124.161C98.4172 124.579 96.4252 124.565 94.3181 124.086C98.3947 124.922 102.244 121.805 102.244 117.613Z" fill="white"/>
</g>
<g opacity="0.55">
<path d="M107.294 112.978C107.339 113.66 107.342 114.316 107.305 114.942C107.303 114.872 107.3 114.802 107.294 114.732V112.978Z" fill="white"/>
</g>
<g opacity="0.55">
<path d="M113.48 98.5682C113.713 97.8948 113.84 97.1738 113.84 96.4219V98.1754C113.84 98.9273 113.713 99.6484 113.48 100.322C113.326 100.773 113.121 101.203 112.877 101.604C111.906 101.991 110.812 102.303 109.603 102.586C111.418 101.89 112.846 100.414 113.48 98.5682Z" fill="white"/>
</g>
<g opacity="0.55">
<path d="M118.236 38.1037V39.8572C118.236 36.2099 115.279 33.2499 111.629 33.2499H22.7039C20.5127 33.2499 18.5824 34.3666 17.4517 36.0612C17.3255 36.3558 17.2329 36.642 17.1684 36.9197C16.9664 36.1482 17.0393 35.2672 17.4517 34.3077C18.5824 32.613 20.5127 31.4964 22.7039 31.4964H111.629C115.279 31.4964 118.236 34.4564 118.236 38.1037Z" fill="white"/>
</g>
<g opacity="0.3">
<path d="M107.294 112.978C107.85 121.602 101.818 125.794 94.3181 124.085C98.3947 124.922 102.244 121.805 102.244 117.613V63.8511C102.244 62.7961 101.994 61.7889 101.545 60.8939C100.934 56.6546 104.099 54.8674 106.82 57.0221C107.129 57.7853 107.294 58.6157 107.294 59.4771V112.978Z" fill="#66142E"/>
</g>
<path d="M97.5461 125.307C96.4515 125.307 95.3078 125.174 94.1311 124.906C93.6813 124.804 93.3979 124.358 93.4954 123.907C93.593 123.456 94.0358 123.168 94.4871 123.261C96.1868 123.61 97.9339 123.179 99.2819 122.079C100.63 120.98 101.402 119.352 101.402 117.613V63.851C101.402 61.1624 99.5741 58.8549 96.9564 58.24L20.7116 40.742C20.7033 40.7404 20.6936 40.7382 20.6838 40.7357L20.6837 40.736C18.7753 40.2916 17.3473 39.3016 16.6628 37.949C16.0649 36.7675 16.0703 35.3938 16.6781 33.9761C16.6983 33.9287 16.723 33.8833 16.7515 33.8405C18.0824 31.8458 20.3076 30.6548 22.7039 30.6548H111.629C115.736 30.6548 119.078 33.9964 119.078 38.1038V92.2276C119.178 99.7245 115.75 102.005 109.796 103.405C109.365 103.508 108.929 103.257 108.799 102.834C108.668 102.41 108.888 101.959 109.302 101.8C110.896 101.189 112.129 99.911 112.684 98.2947C112.893 97.6927 112.998 97.0632 112.998 96.4217V42.2982C112.998 39.1189 110.411 36.5324 107.232 36.5324H31.3096L102.383 52.2245C105.775 53.0221 108.136 56.0034 108.136 59.477V112.951C108.401 117.172 107.13 120.703 104.555 122.896C102.687 124.487 100.268 125.307 97.5461 125.307ZM21.0881 39.1013L97.3371 56.6002C100.724 57.3959 103.086 60.3771 103.086 63.851V117.613C103.086 119.757 102.177 121.769 100.581 123.183C101.66 122.848 102.631 122.324 103.464 121.615C105.661 119.743 106.695 116.775 106.454 113.032C106.453 113.014 106.452 112.996 106.452 112.978V59.477C106.452 56.7884 104.625 54.4811 102.009 53.8657L23.4117 36.5126C22.9924 36.4201 22.7099 36.0263 22.7565 35.5995C22.8031 35.1723 23.1638 34.849 23.5933 34.849H107.232C111.34 34.849 114.681 38.1906 114.681 42.2982V96.4217C114.681 97.2508 114.545 98.0657 114.276 98.8432C114.089 99.3866 113.843 99.9006 113.545 100.377C116.196 99.0117 117.455 96.7905 117.395 92.2387L117.394 38.1037C117.394 34.9247 114.808 32.3382 111.629 32.3382H22.7039C20.8974 32.3382 19.218 33.2234 18.1954 34.7104C17.8135 35.6405 17.8031 36.474 18.1647 37.1889C18.6203 38.0889 19.6494 38.7659 21.063 39.0958C21.0712 39.0975 21.0797 39.0994 21.0881 39.1013Z" fill="#66142E"/>
<path d="M106.394 42.9119C106.224 42.9119 106.051 42.9103 105.875 42.9067L52.4633 42.907C51.9984 42.907 51.6216 42.5302 51.6216 42.0653C51.6216 41.6003 51.9984 41.2236 52.4633 41.2236H105.891C110.241 41.3044 111.286 40.2934 111.532 39.8537C111.84 39.3054 111.518 38.5865 111.194 38.0799C110.944 37.6883 111.059 37.1678 111.45 36.9173C111.842 36.6669 112.363 36.7814 112.613 37.1735C113.648 38.7936 113.395 39.9726 113.001 40.6764C112.169 42.1609 109.947 42.9119 106.394 42.9119Z" fill="#66142E"/>
<path d="M87.4471 42.0653L57.3313 42.2785L57.2836 42.2673L50.5079 40.7719L46.8382 39.9611L42.3239 38.9651L41.6281 35.6909L40.7359 31.4964L36.6733 12.418C36.5891 12.0253 36.8388 11.6381 37.2316 11.5539L58.5714 7.01156L61.8147 6.32137L70.832 4.40231L74.9872 3.51853H74.99L78.3428 2.80309C78.7355 2.71892 79.1227 2.96863 79.2069 3.36142L79.4678 4.58748L79.8887 6.56546L85.1969 31.4964L86.0892 35.6909L87.4471 42.0653Z" fill="#1EBC61"/>
<path d="M57.3153 42.4188L57.2512 42.4038L42.2051 39.0825L40.5984 31.5258L36.5357 12.4474C36.4355 11.9792 36.7344 11.517 37.202 11.4167L74.9869 3.37813L78.3131 2.66578C78.7814 2.56657 79.2437 2.8647 79.3437 3.33212L87.6198 42.2046L87.4478 42.2057L57.3153 42.4188ZM42.4421 38.8474L57.3468 42.1383L87.2738 41.9262L79.0693 3.39076C79.0366 3.23763 78.9461 3.10637 78.8143 3.02114C78.6823 2.9359 78.5253 2.90633 78.3718 2.94034L37.2606 11.6913C36.9445 11.7589 36.7423 12.0718 36.8101 12.3889L42.4421 38.8474Z" fill="#66142E"/>
<g opacity="0.55">
<path d="M79.3584 4.06841L76.8474 4.60429H76.8445L63.6748 7.40713L39.0918 12.6397C38.699 12.7238 38.4465 13.111 38.5306 13.5038L42.596 32.5822L43.4882 36.7766L44.0297 39.341L42.3239 38.965L41.6281 35.6909L40.7359 31.4964L36.6733 12.418C36.5891 12.0252 36.8388 11.638 37.2316 11.5539L61.8147 6.32134L74.9872 3.5185H74.99L78.3428 2.80306C78.7355 2.71889 79.1227 2.9686 79.2069 3.36139L79.3584 4.06841Z" fill="white"/>
</g>
<path d="M83.1431 42.0653L57.2834 42.2673L46.838 39.961L45.929 35.6909L45.0368 31.4964L42.3125 18.6971C44.3831 18.2566 45.7045 16.2197 45.264 14.1463L60.7316 10.8553L72.0636 8.44241C72.5041 10.513 74.541 11.8344 76.6143 11.394L80.8929 31.4964L81.7851 35.6909L83.1431 42.0653Z" fill="#4EEC91"/>
<path d="M57.2687 42.4076L57.2532 42.4043L46.7197 40.0787L44.8995 31.5259L42.146 18.5892L42.2833 18.5598C44.2749 18.1362 45.5504 16.1693 45.1267 14.1752L45.0977 14.0382L45.2348 14.0089L72.1715 8.27597L72.2008 8.41294C72.6245 10.4048 74.5926 11.6797 76.5851 11.2567L76.7223 11.2276L76.7516 11.3646L83.3161 42.2043L57.2687 42.4076ZM46.9564 39.8436L57.2983 42.127L82.9701 41.9264L76.5059 11.5578C74.455 11.9225 72.4616 10.6273 71.9579 8.60833L45.4279 14.2547C45.7897 16.3061 44.4974 18.299 42.4783 18.8029L46.9564 39.8436Z" fill="#66142E"/>
<g opacity="0.3">
<path d="M87.447 42.0653L57.3312 42.2785L57.2834 42.2673L50.5078 40.7719L58.5712 7.01153L61.8146 6.32135L70.8319 4.40228L79.8885 6.56544L85.1968 31.4964L86.089 35.6909L87.447 42.0653Z" fill="#66142E"/>
</g>
<path d="M87.446 42.9073C87.0572 42.9073 86.7079 42.6363 86.6236 42.2407L78.4074 3.64989L75.1654 4.34143C75.1549 4.3439 75.1443 4.34581 75.1338 4.34772L37.5198 12.3532L43.3404 39.6931C43.4373 40.1479 43.1471 40.5948 42.6924 40.6918C42.2375 40.7883 41.7908 40.4984 41.694 40.0438L35.8498 12.5935C35.6689 11.7479 36.2095 10.912 37.0551 10.7309L74.8117 2.69508C74.822 2.69289 74.8322 2.69098 74.8424 2.6893L78.1669 1.97992C78.5757 1.89249 78.9953 1.96926 79.347 2.19606C79.6995 2.42377 79.9419 2.77498 80.0298 3.18517L88.2701 41.89C88.3669 42.3445 88.077 42.7916 87.6223 42.8887C87.5632 42.9013 87.5042 42.9073 87.446 42.9073Z" fill="#66142E"/>
<path d="M83.1425 42.767C82.8185 42.767 82.5274 42.541 82.4571 42.2114L76.0631 12.1729C74.1019 12.2825 72.2765 11.0978 71.5766 9.26341L46.043 14.6974C46.1511 16.6598 44.9677 18.4842 43.1333 19.1843L47.7178 40.7182C47.7985 41.0971 47.5568 41.4698 47.1779 41.5506C46.7991 41.6303 46.4264 41.3898 46.3457 41.0108L41.6265 18.8432C41.5877 18.6613 41.6229 18.4714 41.7242 18.3152C41.8256 18.1593 41.9846 18.0497 42.1665 18.0111C43.8557 17.6516 44.9374 15.9833 44.578 14.292C44.4974 13.913 44.7393 13.5407 45.118 13.4602L71.9176 7.7565C72.0992 7.71868 72.2894 7.75268 72.4454 7.8543C72.6016 7.95542 72.7109 8.11461 72.7497 8.29653C73.109 9.98542 74.7768 11.0677 76.4687 10.7079C76.848 10.6274 77.22 10.8696 77.3005 11.248L83.8292 41.9194C83.9099 42.298 83.6681 42.6707 83.2893 42.7515C83.24 42.7618 83.1908 42.767 83.1425 42.767Z" fill="#66142E"/>
<path d="M105.288 11.5061L100.917 29.8018L97.9879 42.0652H53.2771L62.9902 1.4002C63.0828 1.01021 63.4756 0.76893 63.8684 0.861517L104.749 10.628C105.139 10.7206 105.381 11.1133 105.288 11.5061Z" fill="#1EBC61"/>
<g opacity="0.55">
<path d="M105.288 11.5061L105.083 12.3619L65.0833 2.80583C64.6905 2.71324 64.2977 2.95453 64.2051 3.34451L54.9577 42.0652H53.2771L62.9902 1.4002C63.0828 1.01021 63.4756 0.76893 63.8684 0.861517L104.749 10.628C105.139 10.7206 105.381 11.1133 105.288 11.5061Z" fill="white"/>
</g>
<path d="M97.9878 42.907H53.277C53.0194 42.907 52.7759 42.7889 52.6163 42.5867C52.4567 42.3845 52.3985 42.1204 52.4583 41.8697L62.1716 1.20455C62.3708 0.365603 63.2181 -0.156641 64.0615 0.0422793L104.945 9.80919C105.784 10.0084 106.306 10.8564 106.107 11.6995C106.107 11.7003 106.107 11.7011 106.107 11.7019L98.8065 42.261C98.7159 42.6399 98.3772 42.907 97.9878 42.907ZM54.3434 41.2236H97.3235L104.443 11.4202L63.7824 1.70648L54.3434 41.2236Z" fill="#66142E"/>
<g opacity="0.3">
<path d="M118.236 38.8247V92.2274C118.331 99.3706 115.22 101.264 109.603 102.586C111.418 101.89 112.846 100.414 113.48 98.5682C113.713 97.8948 113.84 97.1738 113.84 96.4219V42.2981C113.84 41.6893 113.758 41.1001 113.601 40.5418V40.5362C113.84 35.9518 116.898 32.8319 118.236 38.8247Z" fill="#66142E"/>
</g>
<path d="M99.4944 17.6421L93.6586 42.0652H57.6033L65.3833 9.49449C67.4455 9.98548 69.5132 8.71453 70.0042 6.65518L96.6551 13.0212C96.1641 15.0805 97.435 17.1511 99.4944 17.6421Z" fill="#4EEC91"/>
<path d="M79.0133 29.1053C73.6388 28.0786 68.4497 31.6033 67.4231 36.9778C67.0863 38.7407 67.2419 40.4825 67.7892 42.0652H86.5203C86.6718 41.6238 86.7957 41.1672 86.8858 40.6956C87.9125 35.3211 84.3878 30.1319 79.0133 29.1053Z" fill="#1EBC61"/>
<path d="M74.483 41.9653C73.194 41.7191 72.1938 40.7529 72.0055 39.0946L70.4402 38.7956L70.8211 36.8014L72.1415 37.0536C72.3795 35.9539 72.8699 34.9466 73.2773 34.4588L75.0965 35.2928C74.6611 35.8544 74.1598 36.7479 73.9715 37.7338C73.7686 38.796 74.1019 39.4393 74.769 39.5667C75.4045 39.688 75.8609 39.2724 76.5357 38.1281C77.4507 36.5432 78.6031 35.6158 80.0898 35.8998C81.4956 36.1683 82.4531 37.3335 82.5302 39.0381L84.0999 39.3379L83.719 41.3321L82.2593 41.0533C82.0339 41.8435 81.7196 42.4283 81.4153 42.8636L79.6474 41.9929C79.923 41.622 80.35 40.947 80.5409 39.9477C80.7321 38.9461 80.3712 38.3744 79.8389 38.2727C79.1877 38.1483 78.79 38.6705 78.0374 39.8931C77.0256 41.5711 75.9225 42.2403 74.483 41.9653Z" fill="#4EEC91"/>
<path d="M81.0149 21.4477C82.573 21.4477 83.836 20.1847 83.836 18.6267C83.836 17.0686 82.573 15.8056 81.0149 15.8056C79.4569 15.8056 78.1938 17.0686 78.1938 18.6267C78.1938 20.1847 79.4569 21.4477 81.0149 21.4477Z" fill="#1EBC61"/>
<g opacity="0.3">
<path d="M103.442 29.6767L100.513 41.9402H82.1695C81.3727 40.3101 80.9238 38.478 80.9238 36.5393C80.9238 29.744 86.4313 24.2337 93.2266 24.2337C97.4799 24.2337 101.231 26.3941 103.442 29.6767Z" fill="#66142E"/>
</g>
<path d="M93.6588 42.7667H57.6033C57.3886 42.7667 57.1857 42.6683 57.0527 42.4998C56.9197 42.3313 56.8712 42.111 56.9211 41.9022L64.7011 9.33126C64.791 8.95508 65.1689 8.72137 65.5458 8.81205C67.2266 9.21124 68.9216 8.17174 69.3221 6.49245C69.3652 6.3116 69.4785 6.15516 69.637 6.05763C69.7957 5.96011 69.9865 5.92969 70.1674 5.97296L96.818 12.3388C97.1947 12.4287 97.4272 12.8071 97.3373 13.1838C96.9364 14.8653 97.977 16.5591 99.657 16.9596C99.8381 17.0027 99.9946 17.1161 100.092 17.2747C100.189 17.4331 100.22 17.6238 100.177 17.8049L94.3409 42.2283C94.2655 42.544 93.9833 42.7667 93.6588 42.7667ZM58.492 41.3639H93.1051L98.6618 18.1088C96.8446 17.3641 95.7064 15.5117 95.8627 13.5529L70.471 7.48789C69.7265 9.30444 67.8731 10.4437 65.9153 10.2864L58.492 41.3639Z" fill="#66142E"/>
<g opacity="0.3">
<path d="M99.9994 68.1326V117.613C99.9994 120.02 98.0494 121.979 95.6534 121.979C95.3588 121.979 95.0614 121.948 94.7696 121.886L94.7023 121.875L22.3054 104.839C21.9912 104.766 21.6882 104.659 21.3992 104.525C52.4212 105.577 83.3703 92.9513 99.9994 68.1326Z" fill="#66142E"/>
</g>
<path d="M111.12 38.2579C109.559 45.3843 102.516 49.896 95.3892 48.3348C93.294 47.8757 91.4256 46.9428 89.87 45.6733C88.7147 44.7307 87.7338 43.6022 86.96 42.3445C86.5846 41.7365 86.2615 41.0969 85.9908 40.4342C85.0406 38.123 84.7376 35.5226 85.2521 32.8988C85.2717 32.7997 85.2908 32.7026 85.3124 32.6039C86.8742 25.4755 93.9175 20.9637 101.044 22.525C101.792 22.689 102.51 22.9131 103.197 23.1927C105.639 24.1824 107.666 25.8569 109.096 27.935C109.501 28.5257 109.858 29.147 110.165 29.7938C110.794 31.1231 111.203 32.5596 111.356 34.0519C111.502 35.422 111.431 36.8392 111.12 38.2579Z" fill="#F7C714"/>
<g opacity="0.55">
<path d="M111.12 38.2579C111.049 38.5808 110.967 38.8988 110.875 39.2105C111.849 32.4252 107.426 25.9359 100.623 24.4453C93.8195 22.9548 87.0894 27.0008 85.137 33.5717C85.1837 33.2501 85.2417 32.9267 85.3124 32.6039C86.8741 25.4755 93.9174 20.9637 101.044 22.525C108.17 24.0862 112.682 31.1296 111.12 38.2579Z" fill="white"/>
</g>
<path d="M111.12 38.2579C109.559 45.3843 102.515 49.896 95.3891 48.3347C88.2627 46.7735 83.7509 39.7302 85.3122 32.6038C85.4474 31.987 85.6234 31.3899 85.8379 30.8141C85.347 37.2743 89.6755 43.2755 96.185 44.7016C102.694 46.1277 109.136 42.486 111.391 36.4123C111.345 37.0251 111.255 37.6411 111.12 38.2579Z" fill="#F89E1D"/>
<path d="M96.245 44.4282C91.2835 43.3412 88.1314 38.4205 89.2184 33.4588C90.3053 28.4974 95.2261 25.3452 100.188 26.4323C105.149 27.5193 108.301 32.44 107.214 37.4014C106.127 42.3632 101.207 45.5152 96.245 44.4282Z" fill="#F9DD6A"/>
<g opacity="0.55">
<path d="M107.214 37.4021C107.161 37.6447 107.098 37.883 107.027 38.1154C107.673 33.4087 104.591 28.9045 99.8726 27.8708C95.1539 26.837 90.4716 29.6402 89.0901 34.1857C89.1234 33.9452 89.1658 33.7024 89.219 33.4597C90.3059 28.4984 95.2266 25.3445 100.188 26.4315C105.149 27.5184 108.301 32.4408 107.214 37.4021Z" fill="white"/>
</g>
<path d="M100.998 38.1071C100.739 39.2873 99.8252 40.1838 98.2944 40.316L97.9804 41.7491L96.1546 41.3491L96.4195 40.1401C95.4133 39.8938 94.4984 39.4176 94.0596 39.0305L94.8722 37.377C95.3782 37.7917 96.1881 38.2751 97.0907 38.4728C98.0632 38.6859 98.6635 38.3951 98.7972 37.7844C98.9247 37.2026 98.5536 36.7722 97.5172 36.1228C96.0813 35.2415 95.2564 34.158 95.5546 32.7968C95.8366 31.5097 96.9326 30.6574 98.5033 30.6288L98.8181 29.1916L100.644 29.5916L100.351 30.9281C101.073 31.1551 101.603 31.4588 101.996 31.7496L101.151 33.3551C100.816 33.0921 100.206 32.6825 99.2909 32.4821C98.3739 32.2812 97.8388 32.5992 97.732 33.0865C97.6014 33.6828 98.0722 34.0617 99.1786 34.7846C100.698 35.7574 101.286 36.7892 100.998 38.1071Z" fill="#66142E"/>
<g opacity="0.27">
<path d="M109.096 27.935L85.9908 40.4342C85.0406 38.123 84.7376 35.5226 85.2521 32.8988L103.197 23.1927C105.639 24.1824 107.666 25.8569 109.096 27.935Z" fill="#FCE5E5"/>
</g>
<g opacity="0.27">
<path d="M111.131 32.6389L89.4032 45.1393C88.2479 44.1967 87.7338 43.6022 86.96 42.3446L110.165 29.7938C110.794 31.1231 110.978 31.1464 111.131 32.6389Z" fill="#FCE5E5"/>
</g>
<path d="M98.2181 45.3442C97.5177 45.3442 96.8068 45.2694 96.095 45.1135C93.5124 44.5477 91.3026 43.0068 89.8729 40.7749C88.4432 38.543 87.9675 35.8913 88.5334 33.3087C89.0992 30.726 90.6398 28.5163 92.8717 27.0866C95.1038 25.657 97.7547 25.1819 100.338 25.7471C102.921 26.3129 105.13 27.8538 106.56 30.0857C107.99 32.3176 108.465 34.969 107.9 37.5516C106.886 42.1791 102.773 45.3442 98.2181 45.3442ZM98.2059 26.9181C96.5975 26.9181 95.0185 27.3776 93.6285 28.2681C91.7121 29.4956 90.3893 31.3924 89.9036 33.609C89.418 35.8256 89.8266 38.1018 91.0542 40.0181C92.2818 41.9347 94.1785 43.2575 96.3952 43.743C97.006 43.877 97.6167 43.9411 98.2178 43.9411C102.128 43.9417 105.659 41.2245 106.529 37.2514C107.015 35.0348 106.606 32.7588 105.379 30.8422C104.151 28.926 102.254 27.6031 100.038 27.1176C99.4287 26.9842 98.8152 26.9181 98.2059 26.9181Z" fill="#66142E"/>
<path d="M98.2188 49.4841C97.2258 49.4841 96.2181 49.3781 95.2091 49.157C93.0307 48.6797 91.0552 47.727 89.3378 46.3253C88.1162 45.3288 87.0751 44.1378 86.2431 42.7856C85.8493 42.1475 85.502 41.4634 85.2115 40.7527C84.1676 38.2133 83.8959 35.4408 84.4261 32.7368C84.4489 32.6214 84.4683 32.5231 84.4903 32.4236C86.1485 24.8545 93.6541 20.044 101.224 21.7028C102.008 21.8746 102.779 22.1135 103.514 22.4132C106.057 23.4437 108.227 25.1882 109.789 27.4576C110.219 28.0845 110.601 28.7486 110.925 29.4331C111.605 30.8712 112.032 32.396 112.194 33.9659C112.352 35.4493 112.267 36.9551 111.942 38.4379C110.505 44.9975 104.675 49.4841 98.2188 49.4841ZM98.215 23.0592C92.5317 23.0592 87.3999 27.0088 86.1346 32.7839C86.1151 32.8724 86.0982 32.959 86.0806 33.0475C85.6114 35.4403 85.8504 37.8793 86.7693 40.1143C87.0253 40.7409 87.3303 41.342 87.6762 41.9023C88.4098 43.0947 89.3267 44.1438 90.4021 45.0211C91.913 46.2543 93.6515 47.0925 95.5694 47.5125C96.457 47.707 97.3447 47.8004 98.2184 47.8004C103.902 47.801 109.033 43.852 110.298 38.0779C110.584 36.7718 110.658 35.4473 110.519 34.141C110.377 32.7587 110.002 31.4181 109.404 30.1536C109.118 29.5494 108.78 28.9631 108.402 28.4108C107.028 26.4148 105.118 24.8796 102.88 23.9727C102.232 23.7086 101.554 23.4984 100.864 23.3472C99.9762 23.1527 99.0887 23.0592 98.215 23.0592Z" fill="#66142E"/>
<path d="M129.547 88.3496L127.095 86.2898C126.512 85.8005 126.42 84.9457 126.871 84.3438C126.886 84.3234 126.904 84.3013 126.921 84.2819L138.738 70.2154C139.244 69.6135 140.143 69.5342 140.746 70.041L143.198 72.1007C143.801 72.6075 143.878 73.5067 143.372 74.1087L131.555 88.1751C131.049 88.777 130.15 88.8563 129.547 88.3496Z" fill="#F7C714"/>
<path d="M130.462 88.8231C130.107 88.8231 129.749 88.7031 129.456 88.4571L127.005 86.3972C126.369 85.8632 126.261 84.9245 126.758 84.2598C126.774 84.2379 126.795 84.2127 126.814 84.191L138.631 70.1252C139.186 69.4641 140.176 69.3786 140.837 69.9335L143.288 71.9933C143.949 72.5487 144.035 73.538 143.48 74.1989L131.662 88.2653C131.353 88.6335 130.909 88.8231 130.462 88.8231ZM129.637 88.2423C130.179 88.6982 130.991 88.6269 131.447 88.085L143.265 74.0187C143.721 73.4762 143.65 72.6638 143.108 72.2082L140.656 70.1483C140.114 69.6924 139.301 69.7637 138.846 70.3056L127.028 84.3721C127.013 84.3897 126.997 84.4088 126.984 84.427C126.575 84.9736 126.664 85.7441 127.185 86.1824L129.637 88.2423Z" fill="#66142E"/>
<path d="M132.531 77.6182L127.419 83.7028L132.053 87.5963L137.165 81.5117L132.531 77.6182Z" fill="#F89E1D"/>
<g opacity="0.55">
<path d="M138.136 70.9452L135.653 73.901L140.287 77.7945L142.771 74.8387L138.136 70.9452Z" fill="#FCE5E5"/>
</g>
<path d="M130.46 89.5257C129.928 89.5257 129.418 89.3402 129.006 88.9939L126.554 86.9346C126.091 86.5453 125.807 85.9984 125.754 85.395C125.702 84.7917 125.887 84.204 126.277 83.7404L138.094 69.6749C138.898 68.7179 140.331 68.593 141.288 69.3974L143.739 71.457C144.203 71.8463 144.487 72.3932 144.54 72.9965C144.592 73.5998 144.406 74.1875 144.017 74.6511L132.2 88.7166C131.81 89.1805 131.263 89.4646 130.66 89.5169C130.593 89.5226 130.527 89.5257 130.46 89.5257ZM139.83 70.5497C139.664 70.5497 139.498 70.6204 139.383 70.7577L127.566 84.8232C127.466 84.9426 127.418 85.0939 127.431 85.2493C127.445 85.4046 127.518 85.5454 127.637 85.6457L130.088 87.705C130.208 87.8055 130.361 87.8518 130.514 87.8398C130.67 87.8263 130.811 87.7532 130.911 87.6338L142.728 73.5683C142.828 73.4488 142.876 73.2976 142.863 73.1422C142.849 72.9868 142.776 72.846 142.657 72.7458L140.205 70.6862C140.096 70.5944 139.963 70.5497 139.83 70.5497Z" fill="#66142E"/>
<path d="M19.2921 68.1459C14.6369 63.0829 9.21633 60.3428 6.53862 61.5324C6.53862 61.5324 2.80358 62.3384 1.47381 66.5057C-0.0949374 69.2227 2.13443 74.7613 6.89505 79.939C10.5398 83.9029 14.6538 86.4431 17.5536 86.7889L17.554 86.7894C17.554 86.7894 22.0254 88.0228 24.739 81.5359C26.2996 79.0302 24.026 73.2945 19.2921 68.1459Z" fill="#F7C714"/>
<path d="M18.4114 87.0157C17.8685 87.0157 17.5291 86.928 17.5168 86.9247C14.4846 86.5641 10.3671 83.9224 6.79177 80.0342C1.99259 74.8144 -0.244683 69.2319 1.34472 66.4487C2.64452 62.4003 6.2294 61.4627 6.49381 61.3988C9.29592 60.1702 14.7177 62.9639 19.3954 68.051C24.1221 73.1919 26.4706 79.021 24.8582 81.6102C22.8698 86.3668 19.8884 87.0154 18.4114 87.0157ZM7.9863 61.3953C7.46709 61.3953 6.99927 61.4813 6.59565 61.6608L6.56838 61.6695C6.5318 61.6775 2.89568 62.5112 1.60755 66.5484L1.59537 66.5758C0.0518758 69.2494 2.27361 74.7053 6.99843 79.844C10.4769 83.6272 14.6265 86.2983 17.5703 86.6499C17.6351 86.6652 21.9774 87.774 24.6098 81.4817C26.1682 78.976 23.8333 73.2921 19.1889 68.2411C15.3484 64.0641 10.8736 61.3953 7.9863 61.3953Z" fill="#66142E"/>
<path d="M12.6711 77.7949L8.83081 82.1112L15.8017 87.0495C15.8017 87.0495 19.6572 83.8663 19.9712 83.0875C19.9712 83.0875 12.4691 79.6546 12.6711 77.7949Z" fill="#F89E1D"/>
<g opacity="0.55">
<path d="M6.00834 67.778L2.30859 73.4735L5.19257 78.067L8.68751 73.6748L6.00834 67.778Z" fill="#FCE5E5"/>
</g>
<g opacity="0.55">
<path d="M5.28151 64.4313C5.28151 64.4313 3.05748 65.3109 2.7167 68.3291C2.7167 68.3291 1.72424 71.2449 3.4409 73.9187C3.4409 73.9187 1.13931 69.2073 0.984947 68.8204C0.83058 68.4334 2.5418 63.4937 2.5418 63.4937L4.18569 62.6526L5.28151 64.4313Z" fill="white"/>
</g>
<g opacity="0.55">
<path d="M13.002 64.0693C13.002 64.0693 10.4734 63.0753 8.39431 63.06C7.24461 63.0515 6.32346 63.9701 6.36195 65.1192C6.4124 66.6262 6.92594 69.2264 9.03029 73.1945L5.32599 66.8908C5.32599 66.8908 4.94168 62.669 6.03841 61.6394C6.03846 61.6393 10.5648 60.8816 13.002 64.0693Z" fill="white"/>
</g>
<path d="M20.3844 77.7745C21.5802 76.6697 19.9874 73.0011 16.827 69.5803C13.6666 66.1595 10.1352 64.282 8.93948 65.3867C7.74375 66.4915 9.33645 70.1601 12.4969 73.5809C15.6573 77.0017 19.1887 78.8792 20.3844 77.7745Z" fill="#F9DD6A"/>
<path d="M19.4387 78.2387C17.7713 78.2387 14.9899 76.4957 12.3921 73.6834C9.13011 70.1522 7.57107 66.4657 8.84293 65.2909C10.1153 64.116 13.6666 65.9619 16.9285 69.493C20.1904 73.0242 21.7495 76.7107 20.4776 77.8856C20.2186 78.1247 19.865 78.2387 19.4387 78.2387ZM9.87669 65.2168C9.52616 65.2168 9.23897 65.307 9.03337 65.4968C7.91566 66.5295 9.54804 70.1914 12.5981 73.4932C15.6482 76.7945 19.1699 78.7111 20.2872 77.6795C21.4049 76.6468 19.7726 72.985 16.7225 69.6831C14.2337 66.989 11.4312 65.2168 9.87669 65.2168Z" fill="#66142E"/>
<path d="M19.4409 78.5359C17.5055 78.5359 14.5058 76.4019 12.1776 73.8814C9.26153 70.7248 7.0325 66.5659 8.64479 65.0765C10.2576 63.5868 14.2266 66.1382 17.1425 69.2949C20.0586 72.4515 22.2876 76.6104 20.6754 78.0998C20.3503 78.4001 19.9294 78.5359 19.4409 78.5359ZM9.87647 65.5067C9.59933 65.5067 9.37988 65.5735 9.23095 65.7111C8.35705 66.5186 9.61274 69.8316 12.8121 73.2951C15.9194 76.6586 19.2162 78.2705 20.0891 77.4653C20.963 76.6578 19.7073 73.3447 16.508 69.8813C13.9311 67.0914 11.2231 65.5067 9.87647 65.5067Z" fill="#66142E"/>
<path d="M16.6409 70.9666C17.1935 71.5488 17.4382 72.3195 17.1185 73.0852L17.8175 73.8318L17.1228 74.5671L16.5235 73.919C16.108 74.3169 15.5792 74.577 15.2318 74.6343L14.5462 73.5048C14.9275 73.4323 15.4298 73.2415 15.7929 72.8902C16.1756 72.5199 16.1811 72.1225 15.8905 71.8121C15.6151 71.5178 15.2831 71.5098 14.6404 71.7145C13.7354 72.0138 12.8854 71.9456 12.2376 71.2334C11.6321 70.5677 11.5349 69.7325 12.0229 69.0527L11.3743 68.3513L12.1503 67.7787L12.7453 68.4142C13.0754 68.2146 13.3842 68.1226 13.6441 68.0801L14.223 69.0367C13.9933 69.0705 13.6062 69.1604 13.2324 69.4616C12.8499 69.7699 12.8536 70.1292 13.0795 70.3739C13.3573 70.6747 13.7007 70.621 14.4063 70.4295C15.3383 70.1661 16.0303 70.3232 16.6409 70.9666Z" fill="#66142E"/>
<mask id="mask0_468_1990" style="mask-type:luminance" maskUnits="userSpaceOnUse" x="4" y="61" width="22" height="22">
<path d="M24.3054 82.056C26.631 79.9178 24.3834 73.6896 19.2855 68.145C14.1875 62.6003 8.16955 59.8388 5.84403 61.977C3.51851 64.1152 5.76603 70.3433 10.864 75.888C15.962 81.4327 21.9799 84.1941 24.3054 82.056Z" fill="white"/>
</mask>
<g mask="url(#mask0_468_1990)">
<g opacity="0.27">
<path d="M25.0247 73.9166L2.5061 71.8255C2.93015 69.7163 3.95589 67.7094 5.57823 66.0764L23.0664 67.7015C24.3423 69.5774 24.9936 71.7451 25.0247 73.9166Z" fill="#FCE5E5"/>
</g>
</g>
<mask id="mask1_468_1990" style="mask-type:luminance" maskUnits="userSpaceOnUse" x="4" y="61" width="22" height="22">
<path d="M24.3054 82.056C26.631 79.9178 24.3834 73.6896 19.2855 68.145C14.1875 62.6003 8.16955 59.8388 5.84403 61.977C3.51851 64.1152 5.76603 70.3433 10.864 75.888C15.962 81.4327 21.9799 84.1941 24.3054 82.056Z" fill="white"/>
</mask>
<g mask="url(#mask1_468_1990)">
<g opacity="0.27">
<path d="M24.2342 78.2578L2.70113 76.8254C2.32433 75.5983 2.24028 74.9269 2.28719 73.6565L24.9017 75.7584C24.7167 77.0109 24.8375 77.1157 24.2342 78.2578Z" fill="#FCE5E5"/>
</g>
</g>
<path d="M22.1842 83.4831C21.076 83.4831 19.7753 83.153 18.3381 82.4935C15.7163 81.2904 12.8805 79.114 10.353 76.3651C4.91004 70.4453 2.7231 63.8984 5.37432 61.4604C8.02599 59.0222 14.3665 61.7503 19.8095 67.6704C22.337 70.419 24.2683 73.4272 25.2474 76.1407C26.298 79.0516 26.135 81.3367 24.7882 82.5748C24.1297 83.1807 23.2452 83.4831 22.1842 83.4831ZM7.9563 61.9736C7.26257 61.9736 6.70498 62.1465 6.32594 62.495C4.57897 64.1014 6.22824 69.8021 11.3879 75.4139C13.7919 78.0283 16.4685 80.089 18.9244 81.2158C21.1565 82.2397 22.9471 82.3581 23.8368 81.5402C24.7267 80.7221 24.7589 78.9277 23.9253 76.6177C23.008 74.0759 21.1789 71.2363 18.7747 68.6216C14.7346 64.2277 10.4597 61.9736 7.9563 61.9736Z" fill="#66142E"/>
<path d="M18.3873 87.8483C17.9133 87.8483 17.5642 87.7927 17.3989 87.7595C14.1597 87.3551 9.86267 84.6172 6.17229 80.6038C3.25924 77.4357 1.3257 74.4094 0.425092 71.6096C-0.99103 67.2071 1.23951 62.4764 5.50309 60.8399C5.83696 60.7119 6.08969 60.6366 6.21819 60.6015C9.40193 59.2735 15.0553 62.0873 20.015 67.4813C25.0292 72.9348 27.3693 79.0091 25.6164 81.9828C23.4401 87.1217 20.0996 87.8483 18.3873 87.8483ZM17.8073 85.8403C17.9831 85.8849 21.5218 86.6822 23.8333 81.1569C23.8537 81.1085 23.8778 81.0616 23.9056 81.0167C25.0488 79.1809 23.3336 73.9924 18.5693 68.8108C13.9127 63.7458 8.90622 61.5561 6.93733 62.4298C6.88268 62.4542 6.82584 62.4734 6.76759 62.4874C6.7677 62.4874 6.54881 62.5422 6.20674 62.6734C2.91628 63.9365 1.19782 67.5975 2.29489 71.0084C3.1078 73.5357 4.89875 76.3169 7.6181 79.2744C10.9684 82.9182 14.9141 85.4852 17.6701 85.814C17.7165 85.8194 17.7624 85.8285 17.8073 85.8403Z" fill="#66142E"/>
</svg>
